<svg width="24" height="25" viewBox="0 0 24 25" fill="none" xmlns="http://www.w3.org/2000/svg">
<path d="M23.9444 11.8363C23.9773 12.1996 24 12.5661 24 12.9382C24 12.5661 23.9773 12.1999 23.9444 11.8363Z" fill="#8AB661"/>
<path d="M6.14151 11.773C6.14151 11.773 2.80432 24.0688 16.1801 24.1758C20.3768 22.6136 23.4693 18.7834 23.9379 14.1656C23.9703 13.8462 23.9799 13.5203 23.9872 13.194C23.9885 13.1081 24 13.0246 24 12.9382C24 12.5664 23.9773 12.1996 23.9444 11.8364C20.4105 25.7477 4.77721 20.2988 6.14151 11.773Z" fill="#8AB661"/>
<path d="M13.0577 7.20896C13.0577 7.20896 0.604045 3.73105 0.795583 17.3104C1.43397 18.9514 2.42468 20.4323 3.69781 21.6487C3.75131 21.6992 3.80668 21.7471 3.86072 21.7969C4.22084 22.1289 4.60087 22.4386 4.99871 22.7243C5.06051 22.7685 5.11856 22.8172 5.18062 22.8602C5.60145 23.148 6.04026 23.4085 6.49437 23.6403C6.62625 23.7082 6.76188 23.7703 6.89563 23.8337C7.28641 24.0177 7.68693 24.1802 8.09542 24.3206C8.19574 24.3548 8.29151 24.3976 8.39316 24.4294C8.88288 24.5792 9.38175 24.6971 9.88667 24.7826C10.0394 24.8093 10.1938 24.8318 10.3484 24.8532C10.8722 24.9288 11.4004 24.9698 11.9297 24.976C11.95 24.976 11.9695 24.9792 11.9898 24.9792C12.389 24.9792 12.783 24.9578 13.1717 24.9195C-0.801458 21.5871 4.5097 5.96236 13.0577 7.20896Z" fill="#8AB661"/>
<path d="M17.912 13.6487C17.912 13.6487 20.8584 1.22715 7.5957 1.78196C3.14834 3.53871 0 7.86596 0 12.9372C0.00413572 13.4833 0.045338 14.0285 0.123323 14.569C2.91453 0.515567 18.8162 5.067 17.912 13.6487Z" fill="#8AB661"/>
<path d="M11.5439 18.9941C11.5439 18.9941 24.0193 20.6228 23.2384 8.76159C21.5405 4.19598 17.1565 0.937164 12 0.937164C11.2698 0.939986 10.5414 1.0092 9.8238 1.14395C23.7247 2.8504 20.1117 19.1156 11.5439 18.9941Z" fill="#8AB661"/>
<path d="M15.4632 12.9385C15.4632 13.6034 15.266 14.2533 14.8966 14.806C14.5273 15.3588 14.0022 15.7897 13.388 16.044C12.7737 16.2984 12.0978 16.3649 11.4458 16.2351C10.7937 16.1053 10.1948 15.7851 9.72477 15.3149C9.25473 14.8447 8.93468 14.2457 8.80511 13.5936C8.67553 12.9415 8.74225 12.2656 8.99682 11.6515C9.25139 11.0373 9.68238 10.5124 10.2353 10.1432C10.7882 9.77398 11.4382 9.57703 12.103 9.57724C12.9943 9.57745 13.849 9.93169 14.4792 10.562C15.1093 11.1924 15.4633 12.0472 15.4632 12.9385Z" fill="#8AB661"/>
</svg>
