<svg width="128" height="128" viewBox="0 0 128 128" fill="none" xmlns="http://www.w3.org/2000/svg">
<path d="M12.7631 60.263C15.1265 58.5084 17.6868 57.6311 20.444 57.6311C23.2371 57.6311 25.5646 58.8128 27.4267 61.1761C29.2887 63.5395 30.2198 66.5295 30.2198 70.1462C30.2198 74.5148 28.8053 77.9345 25.9764 80.4053C23.1476 82.8403 19.4772 84.0578 14.9653 84.0578C12.2081 84.0578 9.79099 83.6639 7.7141 82.8761C5.67301 82.0883 4.06163 80.9066 2.87995 79.331C1.73407 77.7555 1.14323 75.8576 1.10743 73.6375L1 53.3878C1 51.1676 1.53713 49.5383 2.61138 48.4999C3.68564 47.4615 5.11798 46.9422 6.90841 46.9422C8.91368 46.9422 10.3818 47.4256 11.3129 48.3925C12.2797 49.3235 12.7631 50.8275 12.7631 52.9043V60.263ZM12.8168 75.4637C13.4614 76.6812 14.3566 77.29 15.5025 77.29C16.4693 77.29 17.2213 76.6812 17.7584 75.4637C18.2955 74.2462 18.5641 72.8497 18.5641 71.2741C18.5641 70.4147 18.4925 69.5732 18.3492 68.7496C18.206 67.926 18.0091 67.1919 17.7584 66.5474C17.5077 65.867 17.1855 65.3299 16.7916 64.936C16.3977 64.5063 15.9501 64.2915 15.4487 64.2915C14.3387 64.2915 13.4614 64.9539 12.8168 66.2788C12.8168 66.7443 12.8168 68.0872 12.8168 70.3073C12.8168 72.4916 12.8168 74.2104 12.8168 75.4637Z" fill="white"/>
<path fill-rule="evenodd" clip-rule="evenodd" d="M23.6311 82.04C23.0184 82.38 22.3761 82.6771 21.704 82.9312C22.3178 82.5903 22.9602 82.2933 23.6311 82.04ZM31.0451 80.9534C34.7864 81.053 37.5549 81.8012 39.3506 83.1979C41.3201 84.666 42.3048 86.6892 42.3048 89.2674C42.3048 89.7687 42.2332 90.2521 42.09 90.7176C41.9826 91.1832 41.7856 91.6487 41.4991 92.1142C41.2485 92.5439 40.8904 92.9557 40.4249 93.3496C39.9952 93.7077 39.4939 94.0478 38.9209 94.3701C38.348 94.6566 37.6676 94.8893 36.8798 95.0684C36.0921 95.2116 35.2506 95.2832 34.3553 95.2832L26.7818 95.337C27.1399 96.4828 27.7845 97.3959 28.7155 98.0763C29.6465 98.7209 30.8282 99.0431 32.2605 99.0431C33.8003 99.0431 35.3759 98.8462 36.9873 98.4523C37.6676 98.2733 38.4017 97.9868 39.1895 97.5929C40.0131 97.199 40.6039 97.002 40.962 97.002C41.5708 97.002 42.0363 97.1811 42.3585 97.5392C42.7166 97.8973 42.8957 98.3449 42.8957 98.882C42.8957 99.5265 42.6092 100.314 42.0363 101.245C41.4633 102.141 40.6576 103.054 39.6192 103.985C38.6166 104.88 37.2737 105.65 35.5907 106.294C33.9077 106.939 32.0994 107.261 30.1657 107.261C25.7971 107.261 22.1804 106.133 19.3158 103.877C16.4869 101.621 15.0724 98.5418 15.0724 94.6387C15.0724 92.1612 15.5526 89.9915 16.5128 88.1295C21.1644 87.8698 25.3047 86.4121 28.6605 83.5235L28.6718 83.5138L28.683 83.504C29.5819 82.7189 30.3679 81.8665 31.0451 80.9534ZM30.5417 91.8456C30.3269 91.8456 28.9841 91.8635 26.5133 91.8993C26.6207 90.7176 26.8535 89.6434 27.2115 88.6766C27.5696 87.6739 27.9814 86.904 28.4469 86.3669C28.9483 85.8298 29.4496 85.5612 29.9509 85.5612C31.3116 85.5612 31.992 86.6892 31.992 88.9451C31.992 89.7687 31.9025 90.4133 31.7234 90.8788C31.4728 91.5233 31.0789 91.8456 30.5417 91.8456Z" fill="white"/>
<path d="M94.4592 75.5191C94.4592 73.6571 94.2264 72.0278 93.7609 70.6313C93.2954 69.1989 92.615 68.4828 91.7198 68.4828C91.1111 68.4828 90.5739 68.8408 90.1084 69.557C89.6429 70.2732 89.3027 71.1505 89.0879 72.1889C88.873 73.2274 88.7656 74.3375 88.7656 75.5191C88.7656 77.3454 89.0163 78.9568 89.5176 80.3533C90.0189 81.714 90.7351 82.3944 91.6661 82.3944C92.5971 82.3944 93.2954 81.714 93.7609 80.3533C94.2264 78.9926 94.4592 77.3812 94.4592 75.5191ZM91.6661 88.6251C88.873 88.6251 86.3485 88.1237 84.0926 87.1211C81.8725 86.1185 80.082 84.6145 78.7213 82.6092C77.3964 80.6039 76.7339 78.2585 76.7339 75.5729C76.7339 71.4907 78.1305 68.25 80.9235 65.8508C83.7166 63.4517 87.2975 62.2521 91.6661 62.2521C96.0347 62.2521 99.5977 63.4517 102.355 65.8508C105.112 68.25 106.491 71.4907 106.491 75.5729C106.491 79.6192 105.076 82.8062 102.248 85.1337C99.4545 87.4613 95.9273 88.6251 91.6661 88.6251Z" fill="white"/>
<path fill-rule="evenodd" clip-rule="evenodd" d="M97.2762 92.0946L97.3483 107.319C97.3483 110.184 97.8138 112.171 98.7449 113.281C99.6759 114.427 101.144 115 103.149 115C105.155 115 106.641 114.373 107.607 113.12C108.574 111.903 109.058 109.844 109.058 106.943V102.324C111.206 103.541 113.641 104.15 116.363 104.15C119.192 104.15 121.537 103.004 123.399 100.712C125.261 98.3848 126.192 95.2158 126.192 91.2052C126.192 87.0872 125.279 83.8286 123.453 81.4295C121.627 79.0303 119.281 77.8307 116.416 77.8307C114.237 77.8307 112.164 78.4045 110.198 79.5519C109.458 82.9869 107.705 85.9676 104.872 88.3024C102.635 90.1638 100.079 91.4088 97.2762 92.0946ZM97.256 87.8328C99.1211 87.2522 100.785 86.3525 102.247 85.1337C104.325 83.4245 105.64 81.2518 106.191 78.6156C105.382 78.343 104.368 78.2067 103.149 78.2067C101.359 78.2067 99.9265 78.7259 98.8523 79.7644C97.778 80.8028 97.2409 82.4321 97.2409 84.6522L97.256 87.8328ZM111.475 97.5433C110.472 97.5433 109.666 97.042 109.058 96.0394V86.0488C109.666 85.0103 110.454 84.4911 111.421 84.4911C112.352 84.4911 113.104 85.1715 113.677 86.5322C114.25 87.8929 114.536 89.4506 114.536 91.2052C114.536 92.8524 114.268 94.3205 113.731 95.6097C113.194 96.8988 112.442 97.5433 111.475 97.5433Z" fill="white"/>
<path fill-rule="evenodd" clip-rule="evenodd" d="M20.9049 25.5137C21.0773 21.1445 24.4179 17.8711 28.0374 16.9635C31.6572 16.0567 35.5433 17.503 36.7702 22.5124L54.6754 88.5344C55.1429 90.2567 56.9658 93.7393 58.9947 93.1956C61.0227 92.6522 60.0068 88.0487 59.3683 86.5978C56.187 79.3668 52.2107 67.4208 56.6319 60.1316L73.4756 69.857C72.9013 71.6348 72.6196 73.5496 72.6196 75.5729C72.6196 78.7815 73.3777 81.7763 74.9988 84.4221C75.1839 85.39 75.3971 86.3643 75.6084 87.33C76.2165 90.1098 76.8091 92.8184 76.6722 95.0971C76.2545 102.062 72.5945 105.326 65.9678 107.102C57.8659 109.273 50.6903 106.575 46.4828 101.535C46.7948 100.728 47.01 99.8334 47.01 98.8822C47.01 97.36 46.4713 95.8739 45.3413 94.7048C45.2188 94.5738 45.0927 94.4512 44.9638 94.3367C44.9851 94.3019 45.0063 94.2668 45.0272 94.2315C45.4784 93.4907 45.8418 92.6755 46.0636 91.7899C46.3031 90.9646 46.4192 90.1194 46.4192 89.2676C46.4192 85.4792 44.8908 82.2116 41.8427 79.9241C41.3008 79.5059 40.7213 79.1379 40.1091 78.8156L30.176 24.2783C29.796 22.1865 29.1586 20.1968 27.0557 20.7602C25.3469 21.2181 24.322 22.9371 23.9063 24.9944C23.8111 25.4663 23.5815 28.7646 23.5514 29.2661C23.4516 30.9228 21.4051 31.4832 20.8979 31.6191C17.8573 32.4338 16.7032 32.1693 13.1171 30.9556L20.7105 28.921C20.7063 28.7804 20.7877 27.4545 20.8465 26.4961C20.8777 25.989 20.9025 25.5848 20.9049 25.5137ZM75.9746 65.1072L56.3148 53.756C55.7153 53.4091 54.9394 53.617 54.5928 54.2174L54.2776 54.7632C53.9319 55.3634 54.1393 56.1374 54.7388 56.4843L74.3099 67.7831C74.769 66.8419 75.3232 65.9482 75.9746 65.1072ZM77.8851 69.8471C78.325 68.8856 78.891 68.0001 79.583 67.1906L82.7799 69.0365C83.3801 69.3822 83.5875 70.1561 83.2408 70.7566L82.9266 71.3022C82.5793 71.9038 81.8044 72.1114 81.2047 71.7635L77.8851 69.8471ZM77.1469 71.9767L77.8713 72.395C77.5211 72.6268 77.2033 72.8734 76.9154 73.1336C76.9769 72.7385 77.0541 72.3529 77.1469 71.9767ZM42.3049 89.2676C42.3049 89.6184 42.2698 89.9605 42.1996 90.2938L41.2918 85.3092C41.9672 86.4383 42.3049 87.7578 42.3049 89.2676ZM43.1298 54.5045C42.792 53.2439 41.4851 52.5178 40.2245 52.8556C38.9649 53.1931 38.2288 54.4666 38.5666 55.7272C38.9044 56.9878 40.1864 57.7556 41.447 57.4179C42.7076 57.0801 43.4676 55.7651 43.1298 54.5045ZM45.1457 63.4952C44.8079 62.2346 43.5256 61.4659 42.265 61.8036C41.0054 62.1411 40.2447 63.4573 40.5825 64.7179C40.9202 65.9785 42.2272 66.7046 43.4877 66.3668C44.7483 66.029 45.4834 64.7558 45.1457 63.4952ZM47.1525 72.4523C46.8147 71.1917 45.5424 70.4563 44.2818 70.7941C43.0213 71.1319 42.2525 72.4141 42.5902 73.6747C42.928 74.9353 44.244 75.6951 45.5046 75.3573C46.7642 75.0198 47.4903 73.7129 47.1525 72.4523Z" fill="white"/>
<path d="M76.0888 59.3696C75.2386 59.3696 74.4682 59.2567 73.7774 59.0308C73.1 58.7917 72.4823 58.4198 71.9244 57.915C71.3797 57.4102 70.9547 56.7195 70.6491 55.8428C70.3569 54.966 70.2108 53.9366 70.2108 52.7543C70.2108 51.4791 70.3569 50.3898 70.6491 49.4865C70.9414 48.5832 71.3598 47.8792 71.9044 47.3744C72.4491 46.8696 73.0601 46.5043 73.7376 46.2785C74.4151 46.0527 75.1988 45.9398 76.0888 45.9398C76.9522 45.9398 77.7293 46.0726 78.4201 46.3383C79.1108 46.5907 79.7152 46.9826 80.2333 47.5139C80.7647 48.0452 81.1698 48.7559 81.4488 49.6459C81.741 50.5227 81.8871 51.5588 81.8871 52.7543C81.8871 53.9498 81.741 54.986 81.4488 55.8627C81.1565 56.7261 80.7381 57.4102 80.1935 57.915C79.6621 58.4198 79.0511 58.7917 78.3603 59.0308C77.6828 59.2567 76.9257 59.3696 76.0888 59.3696ZM77.1648 55.3646C77.4039 54.6339 77.5234 53.7639 77.5234 52.7543C77.5234 51.7315 77.3972 50.8282 77.1449 50.0444C76.8925 49.2607 76.5404 48.8688 76.0888 48.8688C75.77 48.8688 75.491 49.0681 75.2519 49.4666C75.0261 49.8651 74.8601 50.3566 74.7538 50.9411C74.6475 51.5123 74.5944 52.1167 74.5944 52.7543C74.5944 53.7373 74.7206 54.6007 74.973 55.3446C75.2386 56.0885 75.6106 56.4605 76.0888 56.4605C76.567 56.4605 76.9257 56.0952 77.1648 55.3646Z" fill="white"/>
<path d="M76.0888 40.6971C75.2386 40.6971 74.4682 40.5842 73.7774 40.3584C73.1 40.1192 72.4823 39.7473 71.9244 39.2425C71.3797 38.7377 70.9547 38.047 70.6491 37.1703C70.3569 36.2936 70.2108 35.2641 70.2108 34.0818C70.2108 32.8066 70.3569 31.7173 70.6491 30.814C70.9414 29.9107 71.3598 29.2067 71.9044 28.7019C72.4491 28.1972 73.0601 27.8319 73.7376 27.606C74.4151 27.3802 75.1988 27.2673 76.0888 27.2673C76.9522 27.2673 77.7293 27.4001 78.4201 27.6658C79.1108 27.9182 79.7152 28.3101 80.2333 28.8414C80.7647 29.3728 81.1698 30.0834 81.4488 30.9734C81.741 31.8502 81.8871 32.8863 81.8871 34.0818C81.8871 35.2774 81.741 36.3135 81.4488 37.1902C81.1565 38.0536 80.7381 38.7377 80.1935 39.2425C79.6621 39.7473 79.0511 40.1192 78.3603 40.3584C77.6828 40.5842 76.9257 40.6971 76.0888 40.6971ZM77.1648 36.6921C77.4039 35.9615 77.5234 35.0914 77.5234 34.0818C77.5234 33.059 77.3972 32.1557 77.1449 31.372C76.8925 30.5882 76.5404 30.1963 76.0888 30.1963C75.77 30.1963 75.491 30.3956 75.2519 30.7941C75.0261 31.1926 74.8601 31.6841 74.7538 32.2686C74.6475 32.8398 74.5944 33.4442 74.5944 34.0818C74.5944 35.0648 74.7206 35.9283 74.973 36.6721C75.2386 37.416 75.6106 37.788 76.0888 37.788C76.567 37.788 76.9257 37.4227 77.1648 36.6921Z" fill="white"/>
<path d="M86.7533 24.3015C86.7533 25.3775 86.5607 26.1479 86.1755 26.6128C85.7902 27.0645 85.2057 27.2903 84.422 27.2903C83.9039 27.2903 83.4855 27.2106 83.1667 27.0512C82.8479 26.8918 82.6021 26.5996 82.4295 26.1745C82.2701 25.7494 82.1837 25.1782 82.1704 24.4609L82.1306 17.0287C81.493 17.0287 80.9683 16.9158 80.5565 16.6899C80.1447 16.4508 79.9388 16.059 79.9388 15.5143C79.9388 15.076 80.1247 14.7173 80.4967 14.4384C80.8819 14.1461 81.4133 14 82.0907 14C82.3564 14 82.7283 14.0066 83.2066 14.0199C83.6981 14.0199 84.0434 14.0199 84.2427 14.0199C85.2257 14.0199 85.8832 14.186 86.2153 14.5181C86.5607 14.8369 86.7334 15.4014 86.7334 16.2117L86.7533 24.3015Z" fill="white"/>
<path d="M67.5894 48.8706C67.5894 49.9465 67.3968 50.717 67.0116 51.1819C66.6264 51.6336 66.0419 51.8594 65.2581 51.8594C64.7401 51.8594 64.3216 51.7797 64.0028 51.6203C63.684 51.4609 63.4383 51.1686 63.2656 50.7436C63.1062 50.3185 63.0198 49.7473 63.0066 49.03L62.9667 41.5977C62.3291 41.5977 61.8044 41.4848 61.3926 41.259C60.9808 41.0199 60.7749 40.628 60.7749 40.0834C60.7749 39.645 60.9609 39.2864 61.3328 39.0074C61.718 38.7152 62.2494 38.5691 62.9269 38.5691C63.1925 38.5691 63.5645 38.5757 64.0427 38.589C64.5342 38.589 64.8796 38.589 65.0788 38.589C66.0618 38.589 66.7193 38.755 67.0514 39.0871C67.3968 39.4059 67.5695 39.9705 67.5695 40.7808L67.5894 48.8706Z" fill="white"/>
</svg>
