<svg width="32" height="32" viewBox="0 0 32 32" fill="none" xmlns="http://www.w3.org/2000/svg">
<g clip-path="url(#clip0)">
<path d="M5.97435 0.399586C4.73295 0.710888 3.58718 1.83356 3.52808 3.33211C3.52564 3.4026 3.45921 4.42699 3.46141 4.50071L0.857047 5.19854C2.08698 5.61481 2.48283 5.70552 3.52566 5.42609C3.69963 5.37948 4.40153 5.18728 4.43574 4.61909C4.44606 4.44706 4.52481 3.31582 4.55747 3.15398C4.70004 2.44839 5.05155 1.85882 5.63765 1.70178C6.35887 1.50852 6.5775 2.19095 6.70782 2.9084L11.047 26.7327C11.6408 29.9976 14.9829 32.3867 18.9835 31.3148C21.2563 30.7058 22.5115 29.5861 22.6548 27.1974C22.7983 24.8083 20.6038 21.041 23.0661 19.4112L15.7815 15.2051C14.2652 17.7051 15.6289 21.8023 16.72 24.2824C16.939 24.78 17.2874 26.3589 16.5919 26.5452C15.896 26.7317 15.2708 25.5373 15.1105 24.9465L8.96947 2.30274C8.54867 0.584633 7.21583 0.0886051 5.97435 0.399586Z" fill="white"/>
<path d="M23.8672 14.0316C23.4525 14.0316 23.0767 13.9765 22.7398 13.8664C22.4093 13.7498 22.108 13.5683 21.8359 13.3221C21.5702 13.0759 21.3629 12.7389 21.2138 12.3113C21.0713 11.8836 21 11.3814 21 10.8048C21 10.1827 21.0713 9.65138 21.2138 9.21076C21.3564 8.77014 21.5605 8.42672 21.8262 8.18049C22.0918 7.93426 22.3899 7.75607 22.7203 7.64592C23.0508 7.53576 23.4331 7.48069 23.8672 7.48069C24.2884 7.48069 24.6675 7.54548 25.0044 7.67508C25.3414 7.79819 25.6362 7.98934 25.8889 8.24853C26.1481 8.50771 26.3457 8.85438 26.4818 9.28852C26.6243 9.71617 26.6956 10.2216 26.6956 10.8048C26.6956 11.3879 26.6243 11.8933 26.4818 12.321C26.3392 12.7422 26.1351 13.0759 25.8695 13.3221C25.6103 13.5683 25.3122 13.7498 24.9753 13.8664C24.6448 13.9765 24.2755 14.0316 23.8672 14.0316ZM24.3921 12.078C24.5087 11.7216 24.5671 11.2972 24.5671 10.8048C24.5671 10.3058 24.5055 9.86521 24.3824 9.48291C24.2593 9.10061 24.0876 8.90946 23.8672 8.90946C23.7117 8.90946 23.5757 9.00665 23.459 9.20104C23.3489 9.39543 23.2679 9.63518 23.216 9.92028C23.1642 10.1989 23.1383 10.4937 23.1383 10.8048C23.1383 11.2843 23.1998 11.7054 23.323 12.0683C23.4525 12.4311 23.634 12.6126 23.8672 12.6126C24.1005 12.6126 24.2755 12.4344 24.3921 12.078Z" fill="white"/>
<path d="M29.8643 8.02497C29.8643 8.54982 29.7703 8.92564 29.5824 9.15243C29.3945 9.37274 29.1094 9.48289 28.7271 9.48289C28.4744 9.48289 28.2703 9.44402 28.1148 9.36626C27.9593 9.2885 27.8394 9.14595 27.7552 8.9386C27.6774 8.73125 27.6353 8.45263 27.6288 8.10273L27.6094 4.47736C27.2984 4.47736 27.0424 4.42228 26.8415 4.31213C26.6407 4.1955 26.5402 4.00435 26.5402 3.73868C26.5402 3.52485 26.6309 3.3499 26.8124 3.21383C27.0003 3.07128 27.2595 3 27.5899 3C27.7195 3 27.901 3.00324 28.1342 3.00972C28.374 3.00972 28.5424 3.00972 28.6396 3.00972C29.1191 3.00972 29.4399 3.09072 29.6019 3.25271C29.7703 3.40822 29.8546 3.6836 29.8546 4.07886L29.8643 8.02497Z" fill="white"/>
<path d="M25.6895 19.2984L25.6892 19.2988C25.4296 19.7485 24.8518 19.9045 24.4014 19.6436C24.4012 19.6435 24.401 19.6434 24.4008 19.6433L15.1102 14.2797L15.1098 14.2794C14.6607 14.0195 14.5061 13.4426 14.7651 12.9929L14.7653 12.9925L14.7653 12.9925L14.876 12.8008L14.876 12.8008C15.1355 12.3513 15.7135 12.1958 16.1635 12.4559C16.1636 12.4559 16.1636 12.4559 16.1636 12.4559C16.1637 12.456 16.1638 12.456 16.1639 12.4561L25.4543 17.8202L25.6895 19.2984ZM25.6895 19.2984L25.7995 19.1073M25.6895 19.2984L25.7995 19.1073M25.7995 19.1073C26.0591 18.6577 25.9049 18.0801 25.4547 17.8204L25.7995 19.1073Z" fill="white" stroke="white"/>
</g>
<defs>
<clipPath id="clip0">
<rect width="32" height="32" fill="white"/>
</clipPath>
</defs>
</svg>
