<svg width="24" height="24" viewBox="0 0 24 24" fill="none" xmlns="http://www.w3.org/2000/svg">
<path fill-rule="evenodd" clip-rule="evenodd" d="M3 3.00001C3 2.20436 3.31607 1.4413 3.87868 0.878694C4.44129 0.316085 5.20435 1.52588e-05 6 1.52588e-05H12.879C13.6746 0.000185171 14.4375 0.316367 15 0.879015L20.121 6.00001C20.6836 6.56249 20.9998 7.32543 21 8.12101V21C21 21.7956 20.6839 22.5587 20.1213 23.1213C19.5587 23.6839 18.7956 24 18 24H6C5.20435 24 4.44129 23.6839 3.87868 23.1213C3.31607 22.5587 3 21.7956 3 21V3.00001ZM6 12C6 11.6022 6.15804 11.2207 6.43934 10.9393C6.72065 10.658 7.10218 10.5 7.5 10.5H16.5C16.8978 10.5 17.2794 10.658 17.5607 10.9393C17.842 11.2207 18 11.6022 18 12C18 12.3978 17.842 12.7794 17.5607 13.0607C17.2794 13.342 16.8978 13.5 16.5 13.5H7.5C7.10218 13.5 6.72065 13.342 6.43934 13.0607C6.15804 12.7794 6 12.3978 6 12ZM7.5 16.5C7.10218 16.5 6.72065 16.658 6.43934 16.9393C6.15804 17.2206 6 17.6022 6 18C6 18.3978 6.15804 18.7794 6.43934 19.0607C6.72065 19.342 7.10218 19.5 7.5 19.5H16.5C16.8978 19.5 17.2794 19.342 17.5607 19.0607C17.842 18.7794 18 18.3978 18 18C18 17.6022 17.842 17.2206 17.5607 16.9393C17.2794 16.658 16.8978 16.5 16.5 16.5H7.5Z" fill="#8AB661"/>
</svg>
