<svg width="355" height="222" viewBox="0 0 355 222" fill="none" xmlns="http://www.w3.org/2000/svg">
<path d="M28.8569 136.787C34.6011 132.522 40.8239 130.39 47.5255 130.39C54.3141 130.39 59.9713 133.262 64.497 139.006C69.0227 144.75 71.2856 152.018 71.2856 160.808C71.2856 171.426 67.8478 179.738 60.9722 185.743C54.0965 191.661 45.1756 194.621 34.2094 194.621C27.5078 194.621 21.6331 193.663 16.5852 191.748C11.6243 189.834 7.70775 186.962 4.83565 183.132C2.05059 179.303 0.614537 174.69 0.527503 169.294L0.266403 120.076C0.266403 114.68 1.5719 110.72 4.1829 108.196C6.7939 105.672 10.2752 104.41 14.6269 104.41C19.5008 104.41 23.0691 105.585 25.332 107.935C27.6819 110.198 28.8569 113.854 28.8569 118.902V136.787ZM28.9874 173.733C30.554 176.692 32.7298 178.171 35.5149 178.171C37.8648 178.171 39.6925 176.692 40.998 173.733C42.3035 170.773 42.9563 167.379 42.9563 163.55C42.9563 161.461 42.7822 159.416 42.4341 157.414C42.0859 155.412 41.6072 153.628 40.998 152.061C40.3888 150.408 39.6055 149.102 38.6481 148.145C37.6907 147.1 36.6028 146.578 35.3844 146.578C32.6863 146.578 30.554 148.188 28.9874 151.408C28.9874 152.54 28.9874 155.804 28.9874 161.2C28.9874 166.509 28.9874 170.686 28.9874 173.733Z" fill="#8AB661"/>
<path fill-rule="evenodd" clip-rule="evenodd" d="M70.8637 166.968C69.8677 173.905 67.108 179.658 62.5846 184.229C63.523 177.308 66.2827 171.554 70.8637 166.968ZM81.2788 159.9C86.4199 157.647 92.2958 156.52 98.9065 156.52C109.089 156.52 116.531 158.348 121.231 162.004C126.017 165.572 128.411 170.489 128.411 176.756C128.411 177.974 128.237 179.149 127.889 180.281C127.628 181.412 127.149 182.543 126.453 183.675C125.843 184.719 124.973 185.72 123.842 186.678C122.797 187.548 121.579 188.375 120.186 189.158C118.794 189.854 117.14 190.42 115.225 190.855C113.311 191.203 111.265 191.377 109.089 191.377L90.6819 191.508C91.5522 194.293 93.1188 196.512 95.3817 198.166C97.6445 199.733 100.517 200.516 103.998 200.516C107.74 200.516 111.57 200.037 115.486 199.08C117.14 198.645 118.924 197.948 120.839 196.991C122.841 196.034 124.277 195.555 125.147 195.555C126.627 195.555 127.758 195.99 128.541 196.86C129.412 197.731 129.847 198.819 129.847 200.124C129.847 201.691 129.151 203.605 127.758 205.868C126.366 208.044 124.407 210.264 121.883 212.526C119.446 214.702 116.183 216.573 112.092 218.14C108.002 219.707 103.606 220.49 98.9065 220.49C88.2885 220.49 79.4981 217.748 72.5354 212.265C67.4399 208.202 64.2325 203.039 62.9133 196.776C64.4999 195.735 66.0287 194.585 67.4959 193.322L67.5232 193.299L67.5504 193.275C76.9637 185.053 81.2856 173.793 81.2856 160.808C81.2856 160.505 81.2833 160.202 81.2788 159.9ZM99.8204 183.022C99.2982 183.022 96.0344 183.066 90.0291 183.153C90.2902 180.281 90.8559 177.67 91.7263 175.32C92.5966 172.883 93.5975 171.011 94.7289 169.706C95.9474 168.4 97.1659 167.748 98.3843 167.748C101.692 167.748 103.345 170.489 103.345 175.972C103.345 177.974 103.128 179.541 102.692 180.672C102.083 182.239 101.126 183.022 99.8204 183.022Z" fill="#8AB661"/>
<path d="M255.173 162.766C255.173 158.241 254.607 154.281 253.476 150.886C252.344 147.405 250.691 145.664 248.515 145.664C247.035 145.664 245.73 146.535 244.598 148.275C243.467 150.016 242.64 152.148 242.118 154.672C241.596 157.196 241.335 159.894 241.335 162.766C241.335 167.205 241.944 171.122 243.162 174.516C244.381 177.823 246.121 179.477 248.384 179.477C250.647 179.477 252.344 177.823 253.476 174.516C254.607 171.209 255.173 167.292 255.173 162.766ZM248.384 194.62C241.596 194.62 235.46 193.402 229.977 190.965C224.581 188.528 220.229 184.873 216.922 179.999C213.702 175.125 212.091 169.424 212.091 162.897C212.091 152.975 215.486 145.099 222.274 139.267C229.063 133.436 237.766 130.52 248.384 130.52C259.002 130.52 267.662 133.436 274.364 139.267C281.065 145.099 284.416 152.975 284.416 162.897C284.416 172.732 280.978 180.478 274.103 186.135C267.314 191.792 258.741 194.62 248.384 194.62Z" fill="#8AB661"/>
<path fill-rule="evenodd" clip-rule="evenodd" d="M309.332 189.292C311.682 186.333 312.857 181.328 312.857 174.279V163.051C318.079 166.01 323.997 167.49 330.612 167.49C337.487 167.49 343.188 164.705 347.714 159.135C352.239 153.478 354.502 145.775 354.502 136.027C354.502 126.019 352.283 118.099 347.844 112.267C343.406 106.436 337.705 103.52 330.742 103.52C323.867 103.52 317.426 105.87 311.421 110.57C310.376 108.133 308.81 106.523 306.721 105.74C304.632 104.869 301.891 104.434 298.496 104.434C294.145 104.434 290.663 105.696 288.052 108.22C285.441 110.744 284.136 114.704 284.136 120.1L284.206 134.916C291.12 142.472 294.416 152.052 294.416 162.897C294.416 172.325 291.835 180.751 286.495 187.66C286.875 188.432 287.307 189.107 287.791 189.683C290.054 192.469 293.622 193.861 298.496 193.861C303.37 193.861 306.982 192.338 309.332 189.292ZM318.732 151.432C316.295 151.432 314.336 150.214 312.857 147.777V123.495C314.336 120.971 316.251 119.709 318.601 119.709C320.864 119.709 322.692 121.362 324.084 124.67C325.477 127.977 326.173 131.763 326.173 136.027C326.173 140.031 325.52 143.599 324.215 146.733C322.909 149.866 321.082 151.432 318.732 151.432Z" fill="#8AB661"/>
<path fill-rule="evenodd" clip-rule="evenodd" d="M76.3979 21.8006C76.8168 11.181 84.9364 3.22505 93.7336 1.01898C102.532 -1.18481 111.977 2.33034 114.959 14.5058L158.478 174.974C159.614 179.16 164.045 187.624 168.976 186.303C173.905 184.982 171.436 173.793 169.884 170.267C162.152 152.692 152.487 123.657 163.233 105.94L212.757 134.535C205.546 142.135 202.091 151.851 202.091 162.897C202.091 171.146 204.153 178.814 208.578 185.511L208.612 185.563L208.647 185.614C209.678 187.134 210.791 188.567 211.983 189.911C211.975 190.253 211.962 190.59 211.941 190.924C210.926 207.852 202.03 215.787 185.924 220.103C166.232 225.379 148.792 218.822 138.565 206.572C139.324 204.61 139.847 202.436 139.847 200.124C139.847 196.424 138.537 192.812 135.791 189.971C135.493 189.652 135.187 189.355 134.873 189.076C134.925 188.992 134.977 188.906 135.027 188.821C136.124 187.02 137.007 185.039 137.547 182.886C138.129 180.88 138.411 178.826 138.411 176.756C138.411 167.548 134.696 159.606 127.288 154.046C125.97 153.03 124.562 152.135 123.074 151.352L98.9315 18.7979C98.008 13.7137 96.4586 8.87759 91.3476 10.2471C87.1941 11.36 84.7031 15.538 83.6928 20.5383C83.4613 21.6852 82.9033 29.7018 82.8301 30.9209C82.5877 34.9475 77.6136 36.3095 76.3808 36.6399C68.9906 38.62 66.1854 37.9772 57.4694 35.0273L75.9255 30.082C75.9152 29.7404 76.113 26.5178 76.256 24.1885V24.1883C76.3316 22.9558 76.3919 21.9734 76.3979 21.8006ZM224.098 126.031L162.462 90.444C161.005 89.6009 159.12 90.1061 158.277 91.5655L157.511 92.8922C156.671 94.3509 157.175 96.232 158.632 97.0751L216.914 130.722C219.177 128.906 221.576 127.346 224.098 126.031ZM128.411 176.756C128.411 177.608 128.326 178.44 128.155 179.25L125.949 167.135C127.59 169.879 128.411 173.086 128.411 176.756ZM130.416 92.2632C129.595 89.1994 126.418 87.4346 123.355 88.2556C120.293 89.0759 118.504 92.1712 119.325 95.2351C120.146 98.2989 123.262 100.165 126.326 99.3443C129.39 98.5233 131.237 95.3271 130.416 92.2632ZM135.315 114.115C134.495 111.052 131.378 109.183 128.314 110.004C125.252 110.824 123.404 114.023 124.225 117.087C125.046 120.151 128.222 121.916 131.286 121.095C134.35 120.274 136.136 117.179 135.315 114.115ZM140.193 135.886C139.372 132.822 136.28 131.034 133.216 131.855C130.152 132.676 128.284 135.793 129.104 138.857C129.925 141.921 133.124 143.767 136.188 142.946C139.249 142.126 141.014 138.95 140.193 135.886Z" fill="#8AB661"/>
<path d="M209.382 107.243C207.651 107.243 206.083 107.014 204.678 106.554C203.299 106.067 202.042 105.31 200.907 104.283C199.798 103.256 198.933 101.85 198.311 100.066C197.717 98.2817 197.419 96.1867 197.419 93.7807C197.419 91.1855 197.717 88.9688 198.311 87.1305C198.906 85.2922 199.758 83.8595 200.866 82.8322C201.974 81.8049 203.218 81.0615 204.597 80.6019C205.975 80.1424 207.57 79.9126 209.382 79.9126C211.139 79.9126 212.72 80.1829 214.126 80.7236C215.532 81.2372 216.762 82.0347 217.816 83.116C218.897 84.1974 219.722 85.6437 220.289 87.4549C220.884 89.2391 221.182 91.3477 221.182 93.7807C221.182 96.2137 220.884 98.3223 220.289 100.107C219.695 101.864 218.843 103.256 217.735 104.283C216.653 105.31 215.41 106.067 214.004 106.554C212.626 107.014 211.085 107.243 209.382 107.243ZM211.571 99.0927C212.058 97.6059 212.301 95.8352 212.301 93.7807C212.301 91.6991 212.044 89.8609 211.531 88.2659C211.017 86.6709 210.301 85.8734 209.382 85.8734C208.733 85.8734 208.165 86.2789 207.678 87.0899C207.219 87.9009 206.881 88.9012 206.665 90.0906C206.448 91.2531 206.34 92.4831 206.34 93.7807C206.34 95.7812 206.597 97.5383 207.111 99.0522C207.651 100.566 208.408 101.323 209.382 101.323C210.355 101.323 211.085 100.58 211.571 99.0927Z" fill="#8AB661"/>
<path d="M209.382 69.2433C207.651 69.2433 206.083 69.0135 204.678 68.5539C203.299 68.0673 202.042 67.3104 200.907 66.2831C199.798 65.2559 198.933 63.8501 198.311 62.0659C197.717 60.2817 197.419 58.1867 197.419 55.7807C197.419 53.1855 197.717 50.9688 198.311 49.1305C198.906 47.2922 199.758 45.8595 200.866 44.8322C201.974 43.8049 203.218 43.0615 204.597 42.6019C205.975 42.1424 207.57 41.9126 209.382 41.9126C211.139 41.9126 212.72 42.1829 214.126 42.7236C215.532 43.2372 216.762 44.0347 217.816 45.116C218.897 46.1974 219.722 47.6437 220.289 49.4549C220.884 51.2391 221.182 53.3477 221.182 55.7807C221.182 58.2137 220.884 60.3223 220.289 62.1065C219.695 63.8637 218.843 65.2559 217.735 66.2831C216.653 67.3104 215.41 68.0673 214.004 68.5539C212.626 69.0135 211.085 69.2433 209.382 69.2433ZM211.571 61.0927C212.058 59.6059 212.301 57.8352 212.301 55.7807C212.301 53.6991 212.044 51.8609 211.531 50.2659C211.017 48.6709 210.301 47.8734 209.382 47.8734C208.733 47.8734 208.165 48.2789 207.678 49.0899C207.219 49.9009 206.881 50.9012 206.665 52.0906C206.448 53.2531 206.34 54.4831 206.34 55.7807C206.34 57.7812 206.597 59.5383 207.111 61.0522C207.651 62.5661 208.408 63.323 209.382 63.323C210.355 63.323 211.085 62.5796 211.571 61.0927Z" fill="#8AB661"/>
<path d="M231.085 35.8769C231.085 38.0666 230.693 39.6346 229.909 40.5808C229.125 41.4999 227.935 41.9594 226.34 41.9594C225.286 41.9594 224.434 41.7972 223.786 41.4728C223.137 41.1485 222.637 40.5537 222.285 39.6886C221.961 38.8236 221.785 37.6611 221.758 36.2013L221.677 21.0762C220.379 21.0762 219.312 20.8464 218.474 20.3868C217.636 19.9002 217.217 19.1028 217.217 17.9944C217.217 17.1023 217.595 16.3724 218.352 15.8047C219.136 15.21 220.217 14.9126 221.596 14.9126C222.137 14.9126 222.894 14.9261 223.867 14.9531C224.867 14.9531 225.57 14.9531 225.975 14.9531C227.976 14.9531 229.314 15.2911 229.99 15.9669C230.693 16.6157 231.044 17.7646 231.044 19.4136L231.085 35.8769Z" fill="#8AB661"/>
<path d="M192.085 85.8769C192.085 88.0666 191.693 89.6346 190.909 90.5808C190.125 91.4999 188.935 91.9594 187.34 91.9594C186.286 91.9594 185.434 91.7972 184.786 91.4728C184.137 91.1485 183.637 90.5537 183.285 89.6886C182.961 88.8236 182.785 87.6611 182.758 86.2013L182.677 71.0762C181.379 71.0762 180.312 70.8464 179.474 70.3868C178.636 69.9002 178.217 69.1028 178.217 67.9944C178.217 67.1023 178.595 66.3724 179.352 65.8047C180.136 65.21 181.217 64.9126 182.596 64.9126C183.137 64.9126 183.894 64.9261 184.867 64.9531C185.867 64.9531 186.57 64.9531 186.975 64.9531C188.976 64.9531 190.314 65.2911 190.99 65.9669C191.693 66.6157 192.044 67.7646 192.044 69.4136L192.085 85.8769Z" fill="#8AB661"/>
</svg>
